<mxfile host="app.diagrams.net" modified="2023-10-25T13:08:05.870Z" agent="Mozilla/5.0 (Windows NT 10.0; Win64; x64; rv:109.0) Gecko/20100101 Firefox/118.0" etag="O3ZT5F3FMshUMtQHo_DU" version="22.0.8" type="github">
  <diagram name="Page-1" id="AN3knQ1uPVFw2JtmK8g8">
    <mxGraphModel dx="1551" dy="839" grid="1" gridSize="10" guides="1" tooltips="1" connect="1" arrows="1" fold="1" page="1" pageScale="1" pageWidth="3300" pageHeight="4681" math="0" shadow="0">
      <root>
        <mxCell id="0" />
        <mxCell id="1" parent="0" />
        <mxCell id="YmAx3Wk3M9Wkv32GOvmK-6" style="edgeStyle=orthogonalEdgeStyle;rounded=0;orthogonalLoop=1;jettySize=auto;html=1;entryX=0;entryY=0.5;entryDx=0;entryDy=0;endArrow=ERoneToMany;endFill=0;startArrow=ERmandOne;startFill=0;" parent="1" source="YmAx3Wk3M9Wkv32GOvmK-4" edge="1">
          <mxGeometry relative="1" as="geometry">
            <mxPoint x="290" y="200" as="targetPoint" />
          </mxGeometry>
        </mxCell>
        <mxCell id="YmAx3Wk3M9Wkv32GOvmK-9" style="edgeStyle=orthogonalEdgeStyle;rounded=0;orthogonalLoop=1;jettySize=auto;html=1;exitX=0.25;exitY=1;exitDx=0;exitDy=0;endArrow=none;endFill=0;" parent="1" source="YmAx3Wk3M9Wkv32GOvmK-4" target="YmAx3Wk3M9Wkv32GOvmK-8" edge="1">
          <mxGeometry relative="1" as="geometry" />
        </mxCell>
        <mxCell id="YmAx3Wk3M9Wkv32GOvmK-4" value="Entity" style="whiteSpace=wrap;html=1;align=center;" parent="1" vertex="1">
          <mxGeometry x="60" y="180" width="100" height="40" as="geometry" />
        </mxCell>
        <mxCell id="YmAx3Wk3M9Wkv32GOvmK-7" value="Entity" style="shape=ext;margin=3;double=1;whiteSpace=wrap;html=1;align=center;" parent="1" vertex="1">
          <mxGeometry x="290" y="180" width="100" height="40" as="geometry" />
        </mxCell>
        <mxCell id="YmAx3Wk3M9Wkv32GOvmK-8" value="Attribute" style="ellipse;whiteSpace=wrap;html=1;align=center;" parent="1" vertex="1">
          <mxGeometry x="100" y="270" width="100" height="40" as="geometry" />
        </mxCell>
        <mxCell id="YmAx3Wk3M9Wkv32GOvmK-10" value="EVA model - martinova notacija" style="text;html=1;align=center;verticalAlign=middle;resizable=0;points=[];autosize=1;strokeColor=none;fillColor=none;" parent="1" vertex="1">
          <mxGeometry x="55" y="580" width="190" height="30" as="geometry" />
        </mxCell>
        <mxCell id="YmAx3Wk3M9Wkv32GOvmK-11" value="Podsustav praćenje radnih sati evidentira radne sate&lt;br&gt;koje je zaposlenik obavio. Zaposlenik odrađuje radne&lt;br&gt;sate. Svaki radni sat je odrađen od nekog zaposlenika.&lt;br&gt;Zaposlenik se opisuje sa imenom, prezimenom,&lt;br&gt;adresom i mjestom, dok se radni sati opisuju&lt;br&gt;datumom, brojem sati i opisom posla" style="text;html=1;align=center;verticalAlign=middle;resizable=0;points=[];autosize=1;strokeColor=none;fillColor=none;" parent="1" vertex="1">
          <mxGeometry x="20" y="450" width="310" height="100" as="geometry" />
        </mxCell>
        <mxCell id="YmAx3Wk3M9Wkv32GOvmK-14" style="edgeStyle=orthogonalEdgeStyle;rounded=0;orthogonalLoop=1;jettySize=auto;html=1;exitX=1;exitY=0.5;exitDx=0;exitDy=0;endArrow=ERoneToMany;endFill=0;startArrow=ERmandOne;startFill=0;endSize=10;" parent="1" source="YmAx3Wk3M9Wkv32GOvmK-12" target="YmAx3Wk3M9Wkv32GOvmK-13" edge="1">
          <mxGeometry relative="1" as="geometry" />
        </mxCell>
        <mxCell id="YmAx3Wk3M9Wkv32GOvmK-12" value="Zaposlenik" style="whiteSpace=wrap;html=1;align=center;" parent="1" vertex="1">
          <mxGeometry x="30" y="650" width="100" height="40" as="geometry" />
        </mxCell>
        <mxCell id="YmAx3Wk3M9Wkv32GOvmK-13" value="radni sat" style="whiteSpace=wrap;html=1;align=center;" parent="1" vertex="1">
          <mxGeometry x="270" y="650" width="100" height="40" as="geometry" />
        </mxCell>
        <mxCell id="YmAx3Wk3M9Wkv32GOvmK-15" value="ime" style="ellipse;whiteSpace=wrap;html=1;align=center;" parent="1" vertex="1">
          <mxGeometry x="70" y="720" width="100" height="40" as="geometry" />
        </mxCell>
        <mxCell id="YmAx3Wk3M9Wkv32GOvmK-22" style="edgeStyle=orthogonalEdgeStyle;rounded=0;orthogonalLoop=1;jettySize=auto;html=1;exitX=0;exitY=0.5;exitDx=0;exitDy=0;endArrow=none;endFill=0;" parent="1" source="YmAx3Wk3M9Wkv32GOvmK-16" edge="1">
          <mxGeometry relative="1" as="geometry">
            <mxPoint x="50" y="690" as="targetPoint" />
          </mxGeometry>
        </mxCell>
        <mxCell id="YmAx3Wk3M9Wkv32GOvmK-16" value="prezime" style="ellipse;whiteSpace=wrap;html=1;align=center;" parent="1" vertex="1">
          <mxGeometry x="70" y="770" width="100" height="40" as="geometry" />
        </mxCell>
        <mxCell id="YmAx3Wk3M9Wkv32GOvmK-23" style="edgeStyle=orthogonalEdgeStyle;rounded=0;orthogonalLoop=1;jettySize=auto;html=1;exitX=0;exitY=0.5;exitDx=0;exitDy=0;endArrow=none;endFill=0;" parent="1" source="YmAx3Wk3M9Wkv32GOvmK-17" edge="1">
          <mxGeometry relative="1" as="geometry">
            <mxPoint x="50" y="690" as="targetPoint" />
          </mxGeometry>
        </mxCell>
        <mxCell id="YmAx3Wk3M9Wkv32GOvmK-17" value="mijesto" style="ellipse;whiteSpace=wrap;html=1;align=center;" parent="1" vertex="1">
          <mxGeometry x="70" y="820" width="100" height="40" as="geometry" />
        </mxCell>
        <mxCell id="YmAx3Wk3M9Wkv32GOvmK-24" style="edgeStyle=orthogonalEdgeStyle;rounded=0;orthogonalLoop=1;jettySize=auto;html=1;exitX=0;exitY=0.5;exitDx=0;exitDy=0;endArrow=none;endFill=0;" parent="1" source="YmAx3Wk3M9Wkv32GOvmK-18" edge="1">
          <mxGeometry relative="1" as="geometry">
            <mxPoint x="50" y="690" as="targetPoint" />
          </mxGeometry>
        </mxCell>
        <mxCell id="YmAx3Wk3M9Wkv32GOvmK-18" value="adresa" style="ellipse;whiteSpace=wrap;html=1;align=center;" parent="1" vertex="1">
          <mxGeometry x="70" y="870" width="100" height="40" as="geometry" />
        </mxCell>
        <mxCell id="YmAx3Wk3M9Wkv32GOvmK-21" style="edgeStyle=orthogonalEdgeStyle;rounded=0;orthogonalLoop=1;jettySize=auto;html=1;exitX=0;exitY=0.5;exitDx=0;exitDy=0;entryX=0.2;entryY=1;entryDx=0;entryDy=0;entryPerimeter=0;endArrow=none;endFill=0;" parent="1" source="YmAx3Wk3M9Wkv32GOvmK-15" target="YmAx3Wk3M9Wkv32GOvmK-12" edge="1">
          <mxGeometry relative="1" as="geometry" />
        </mxCell>
        <mxCell id="YmAx3Wk3M9Wkv32GOvmK-26" style="edgeStyle=orthogonalEdgeStyle;rounded=0;orthogonalLoop=1;jettySize=auto;html=1;exitX=0;exitY=0.5;exitDx=0;exitDy=0;endArrow=none;endFill=0;" parent="1" source="YmAx3Wk3M9Wkv32GOvmK-25" edge="1">
          <mxGeometry relative="1" as="geometry">
            <mxPoint x="50" y="690" as="targetPoint" />
          </mxGeometry>
        </mxCell>
        <mxCell id="YmAx3Wk3M9Wkv32GOvmK-25" value="&lt;b&gt;identifikator/sifra zaposlenika&lt;/b&gt;" style="ellipse;whiteSpace=wrap;html=1;align=center;" parent="1" vertex="1">
          <mxGeometry x="70" y="920" width="100" height="40" as="geometry" />
        </mxCell>
        <mxCell id="YmAx3Wk3M9Wkv32GOvmK-27" value="datum" style="ellipse;whiteSpace=wrap;html=1;align=center;" parent="1" vertex="1">
          <mxGeometry x="310" y="720" width="100" height="40" as="geometry" />
        </mxCell>
        <mxCell id="YmAx3Wk3M9Wkv32GOvmK-31" style="edgeStyle=orthogonalEdgeStyle;rounded=0;orthogonalLoop=1;jettySize=auto;html=1;exitX=0;exitY=0.5;exitDx=0;exitDy=0;endArrow=none;endFill=0;" parent="1" source="YmAx3Wk3M9Wkv32GOvmK-28" edge="1">
          <mxGeometry relative="1" as="geometry">
            <mxPoint x="290" y="700" as="targetPoint" />
          </mxGeometry>
        </mxCell>
        <mxCell id="YmAx3Wk3M9Wkv32GOvmK-28" value="broj sati" style="ellipse;whiteSpace=wrap;html=1;align=center;" parent="1" vertex="1">
          <mxGeometry x="310" y="770" width="100" height="40" as="geometry" />
        </mxCell>
        <mxCell id="YmAx3Wk3M9Wkv32GOvmK-32" style="edgeStyle=orthogonalEdgeStyle;rounded=0;orthogonalLoop=1;jettySize=auto;html=1;exitX=0;exitY=0.5;exitDx=0;exitDy=0;endArrow=none;endFill=0;" parent="1" source="YmAx3Wk3M9Wkv32GOvmK-29" edge="1">
          <mxGeometry relative="1" as="geometry">
            <mxPoint x="290" y="730" as="targetPoint" />
          </mxGeometry>
        </mxCell>
        <mxCell id="YmAx3Wk3M9Wkv32GOvmK-29" value="opis posla" style="ellipse;whiteSpace=wrap;html=1;align=center;" parent="1" vertex="1">
          <mxGeometry x="310" y="820" width="100" height="40" as="geometry" />
        </mxCell>
        <mxCell id="YmAx3Wk3M9Wkv32GOvmK-30" style="edgeStyle=orthogonalEdgeStyle;rounded=0;orthogonalLoop=1;jettySize=auto;html=1;exitX=0;exitY=0.5;exitDx=0;exitDy=0;entryX=0.2;entryY=1;entryDx=0;entryDy=0;entryPerimeter=0;endArrow=none;endFill=0;" parent="1" source="YmAx3Wk3M9Wkv32GOvmK-27" target="YmAx3Wk3M9Wkv32GOvmK-13" edge="1">
          <mxGeometry relative="1" as="geometry" />
        </mxCell>
        <mxCell id="YmAx3Wk3M9Wkv32GOvmK-34" style="edgeStyle=orthogonalEdgeStyle;rounded=0;orthogonalLoop=1;jettySize=auto;html=1;exitX=0;exitY=0.5;exitDx=0;exitDy=0;endArrow=none;endFill=0;" parent="1" source="YmAx3Wk3M9Wkv32GOvmK-33" edge="1">
          <mxGeometry relative="1" as="geometry">
            <mxPoint x="290" y="840" as="targetPoint" />
          </mxGeometry>
        </mxCell>
        <mxCell id="YmAx3Wk3M9Wkv32GOvmK-33" value="&lt;b&gt;sifra radnog sata&lt;/b&gt;" style="ellipse;whiteSpace=wrap;html=1;align=center;" parent="1" vertex="1">
          <mxGeometry x="310" y="870" width="100" height="40" as="geometry" />
        </mxCell>
        <mxCell id="YmAx3Wk3M9Wkv32GOvmK-36" value="odrađuje" style="text;html=1;align=center;verticalAlign=middle;resizable=0;points=[];autosize=1;strokeColor=none;fillColor=none;strokeWidth=1;" parent="1" vertex="1">
          <mxGeometry x="90" y="620" width="70" height="30" as="geometry" />
        </mxCell>
        <mxCell id="YmAx3Wk3M9Wkv32GOvmK-37" value="je odrađen od" style="text;html=1;align=center;verticalAlign=middle;resizable=0;points=[];autosize=1;strokeColor=none;fillColor=none;" parent="1" vertex="1">
          <mxGeometry x="245" y="620" width="100" height="30" as="geometry" />
        </mxCell>
        <mxCell id="YmAx3Wk3M9Wkv32GOvmK-40" value="" style="edgeStyle=none;orthogonalLoop=1;jettySize=auto;html=1;rounded=0;" parent="1" edge="1">
          <mxGeometry width="100" relative="1" as="geometry">
            <mxPoint x="300" y="620" as="sourcePoint" />
            <mxPoint x="240" y="620" as="targetPoint" />
            <Array as="points" />
          </mxGeometry>
        </mxCell>
        <mxCell id="YmAx3Wk3M9Wkv32GOvmK-41" value="" style="edgeStyle=none;orthogonalLoop=1;jettySize=auto;html=1;rounded=0;" parent="1" edge="1">
          <mxGeometry width="100" relative="1" as="geometry">
            <mxPoint x="70" y="619.52" as="sourcePoint" />
            <mxPoint x="130" y="620" as="targetPoint" />
            <Array as="points" />
          </mxGeometry>
        </mxCell>
        <mxCell id="YmAx3Wk3M9Wkv32GOvmK-42" value="EVA model - chenova notacija" style="text;html=1;align=center;verticalAlign=middle;resizable=0;points=[];autosize=1;strokeColor=none;fillColor=none;" parent="1" vertex="1">
          <mxGeometry x="60" y="1010" width="180" height="30" as="geometry" />
        </mxCell>
        <mxCell id="YmAx3Wk3M9Wkv32GOvmK-44" value="Zaposlenik" style="whiteSpace=wrap;html=1;align=center;" parent="1" vertex="1">
          <mxGeometry x="30" y="1080" width="100" height="40" as="geometry" />
        </mxCell>
        <mxCell id="YmAx3Wk3M9Wkv32GOvmK-45" value="radni sat" style="whiteSpace=wrap;html=1;align=center;" parent="1" vertex="1">
          <mxGeometry x="270" y="1080" width="100" height="40" as="geometry" />
        </mxCell>
        <mxCell id="YmAx3Wk3M9Wkv32GOvmK-46" value="ime" style="ellipse;whiteSpace=wrap;html=1;align=center;" parent="1" vertex="1">
          <mxGeometry x="70" y="1150" width="100" height="40" as="geometry" />
        </mxCell>
        <mxCell id="YmAx3Wk3M9Wkv32GOvmK-47" style="edgeStyle=orthogonalEdgeStyle;rounded=0;orthogonalLoop=1;jettySize=auto;html=1;exitX=0;exitY=0.5;exitDx=0;exitDy=0;endArrow=none;endFill=0;" parent="1" source="YmAx3Wk3M9Wkv32GOvmK-48" edge="1">
          <mxGeometry relative="1" as="geometry">
            <mxPoint x="50" y="1120" as="targetPoint" />
          </mxGeometry>
        </mxCell>
        <mxCell id="YmAx3Wk3M9Wkv32GOvmK-48" value="prezime" style="ellipse;whiteSpace=wrap;html=1;align=center;" parent="1" vertex="1">
          <mxGeometry x="70" y="1200" width="100" height="40" as="geometry" />
        </mxCell>
        <mxCell id="YmAx3Wk3M9Wkv32GOvmK-49" style="edgeStyle=orthogonalEdgeStyle;rounded=0;orthogonalLoop=1;jettySize=auto;html=1;exitX=0;exitY=0.5;exitDx=0;exitDy=0;endArrow=none;endFill=0;" parent="1" source="YmAx3Wk3M9Wkv32GOvmK-50" edge="1">
          <mxGeometry relative="1" as="geometry">
            <mxPoint x="50" y="1120" as="targetPoint" />
          </mxGeometry>
        </mxCell>
        <mxCell id="YmAx3Wk3M9Wkv32GOvmK-50" value="mijesto" style="ellipse;whiteSpace=wrap;html=1;align=center;" parent="1" vertex="1">
          <mxGeometry x="70" y="1250" width="100" height="40" as="geometry" />
        </mxCell>
        <mxCell id="YmAx3Wk3M9Wkv32GOvmK-51" style="edgeStyle=orthogonalEdgeStyle;rounded=0;orthogonalLoop=1;jettySize=auto;html=1;exitX=0;exitY=0.5;exitDx=0;exitDy=0;endArrow=none;endFill=0;" parent="1" source="YmAx3Wk3M9Wkv32GOvmK-52" edge="1">
          <mxGeometry relative="1" as="geometry">
            <mxPoint x="50" y="1120" as="targetPoint" />
          </mxGeometry>
        </mxCell>
        <mxCell id="YmAx3Wk3M9Wkv32GOvmK-52" value="adresa" style="ellipse;whiteSpace=wrap;html=1;align=center;" parent="1" vertex="1">
          <mxGeometry x="70" y="1300" width="100" height="40" as="geometry" />
        </mxCell>
        <mxCell id="YmAx3Wk3M9Wkv32GOvmK-53" style="edgeStyle=orthogonalEdgeStyle;rounded=0;orthogonalLoop=1;jettySize=auto;html=1;exitX=0;exitY=0.5;exitDx=0;exitDy=0;entryX=0.2;entryY=1;entryDx=0;entryDy=0;entryPerimeter=0;endArrow=none;endFill=0;" parent="1" source="YmAx3Wk3M9Wkv32GOvmK-46" target="YmAx3Wk3M9Wkv32GOvmK-44" edge="1">
          <mxGeometry relative="1" as="geometry" />
        </mxCell>
        <mxCell id="YmAx3Wk3M9Wkv32GOvmK-54" style="edgeStyle=orthogonalEdgeStyle;rounded=0;orthogonalLoop=1;jettySize=auto;html=1;exitX=0;exitY=0.5;exitDx=0;exitDy=0;endArrow=none;endFill=0;" parent="1" source="YmAx3Wk3M9Wkv32GOvmK-55" edge="1">
          <mxGeometry relative="1" as="geometry">
            <mxPoint x="50" y="1120" as="targetPoint" />
          </mxGeometry>
        </mxCell>
        <mxCell id="YmAx3Wk3M9Wkv32GOvmK-55" value="&lt;b&gt;identifikator/sifra zaposlenika&lt;/b&gt;" style="ellipse;whiteSpace=wrap;html=1;align=center;" parent="1" vertex="1">
          <mxGeometry x="70" y="1350" width="100" height="40" as="geometry" />
        </mxCell>
        <mxCell id="YmAx3Wk3M9Wkv32GOvmK-56" value="datum" style="ellipse;whiteSpace=wrap;html=1;align=center;" parent="1" vertex="1">
          <mxGeometry x="310" y="1150" width="100" height="40" as="geometry" />
        </mxCell>
        <mxCell id="YmAx3Wk3M9Wkv32GOvmK-57" style="edgeStyle=orthogonalEdgeStyle;rounded=0;orthogonalLoop=1;jettySize=auto;html=1;exitX=0;exitY=0.5;exitDx=0;exitDy=0;endArrow=none;endFill=0;" parent="1" source="YmAx3Wk3M9Wkv32GOvmK-58" edge="1">
          <mxGeometry relative="1" as="geometry">
            <mxPoint x="290" y="1130" as="targetPoint" />
          </mxGeometry>
        </mxCell>
        <mxCell id="YmAx3Wk3M9Wkv32GOvmK-58" value="broj sati" style="ellipse;whiteSpace=wrap;html=1;align=center;" parent="1" vertex="1">
          <mxGeometry x="310" y="1200" width="100" height="40" as="geometry" />
        </mxCell>
        <mxCell id="YmAx3Wk3M9Wkv32GOvmK-59" style="edgeStyle=orthogonalEdgeStyle;rounded=0;orthogonalLoop=1;jettySize=auto;html=1;exitX=0;exitY=0.5;exitDx=0;exitDy=0;endArrow=none;endFill=0;" parent="1" source="YmAx3Wk3M9Wkv32GOvmK-60" edge="1">
          <mxGeometry relative="1" as="geometry">
            <mxPoint x="290" y="1160" as="targetPoint" />
          </mxGeometry>
        </mxCell>
        <mxCell id="YmAx3Wk3M9Wkv32GOvmK-60" value="opis posla" style="ellipse;whiteSpace=wrap;html=1;align=center;" parent="1" vertex="1">
          <mxGeometry x="310" y="1250" width="100" height="40" as="geometry" />
        </mxCell>
        <mxCell id="YmAx3Wk3M9Wkv32GOvmK-61" style="edgeStyle=orthogonalEdgeStyle;rounded=0;orthogonalLoop=1;jettySize=auto;html=1;exitX=0;exitY=0.5;exitDx=0;exitDy=0;entryX=0.2;entryY=1;entryDx=0;entryDy=0;entryPerimeter=0;endArrow=none;endFill=0;" parent="1" source="YmAx3Wk3M9Wkv32GOvmK-56" target="YmAx3Wk3M9Wkv32GOvmK-45" edge="1">
          <mxGeometry relative="1" as="geometry" />
        </mxCell>
        <mxCell id="YmAx3Wk3M9Wkv32GOvmK-62" style="edgeStyle=orthogonalEdgeStyle;rounded=0;orthogonalLoop=1;jettySize=auto;html=1;exitX=0;exitY=0.5;exitDx=0;exitDy=0;endArrow=none;endFill=0;" parent="1" source="YmAx3Wk3M9Wkv32GOvmK-63" edge="1">
          <mxGeometry relative="1" as="geometry">
            <mxPoint x="290" y="1270" as="targetPoint" />
          </mxGeometry>
        </mxCell>
        <mxCell id="YmAx3Wk3M9Wkv32GOvmK-63" value="&lt;b&gt;sifra radnog sata&lt;/b&gt;" style="ellipse;whiteSpace=wrap;html=1;align=center;" parent="1" vertex="1">
          <mxGeometry x="310" y="1300" width="100" height="40" as="geometry" />
        </mxCell>
        <mxCell id="YmAx3Wk3M9Wkv32GOvmK-66" value="" style="edgeStyle=none;orthogonalLoop=1;jettySize=auto;html=1;rounded=0;" parent="1" edge="1">
          <mxGeometry width="100" relative="1" as="geometry">
            <mxPoint x="300" y="1050" as="sourcePoint" />
            <mxPoint x="240" y="1050" as="targetPoint" />
            <Array as="points" />
          </mxGeometry>
        </mxCell>
        <mxCell id="YmAx3Wk3M9Wkv32GOvmK-67" value="" style="edgeStyle=none;orthogonalLoop=1;jettySize=auto;html=1;rounded=0;" parent="1" edge="1">
          <mxGeometry width="100" relative="1" as="geometry">
            <mxPoint x="70" y="1049.52" as="sourcePoint" />
            <mxPoint x="130" y="1050" as="targetPoint" />
            <Array as="points" />
          </mxGeometry>
        </mxCell>
        <mxCell id="YmAx3Wk3M9Wkv32GOvmK-70" style="edgeStyle=orthogonalEdgeStyle;rounded=0;orthogonalLoop=1;jettySize=auto;html=1;exitX=0;exitY=0.5;exitDx=0;exitDy=0;entryX=1;entryY=0.5;entryDx=0;entryDy=0;endArrow=none;endFill=0;" parent="1" source="YmAx3Wk3M9Wkv32GOvmK-68" target="YmAx3Wk3M9Wkv32GOvmK-44" edge="1">
          <mxGeometry relative="1" as="geometry" />
        </mxCell>
        <mxCell id="YmAx3Wk3M9Wkv32GOvmK-72" value="1,1" style="edgeLabel;html=1;align=center;verticalAlign=middle;resizable=0;points=[];" parent="YmAx3Wk3M9Wkv32GOvmK-70" vertex="1" connectable="0">
          <mxGeometry x="-0.0238" y="-1" relative="1" as="geometry">
            <mxPoint as="offset" />
          </mxGeometry>
        </mxCell>
        <mxCell id="YmAx3Wk3M9Wkv32GOvmK-68" value="odrađivati" style="shape=rhombus;perimeter=rhombusPerimeter;whiteSpace=wrap;html=1;align=center;" parent="1" vertex="1">
          <mxGeometry x="170" y="1070" width="60" height="60" as="geometry" />
        </mxCell>
        <mxCell id="YmAx3Wk3M9Wkv32GOvmK-69" style="edgeStyle=orthogonalEdgeStyle;rounded=0;orthogonalLoop=1;jettySize=auto;html=1;entryX=0;entryY=0.5;entryDx=0;entryDy=0;endArrow=none;endFill=0;" parent="1" source="YmAx3Wk3M9Wkv32GOvmK-68" target="YmAx3Wk3M9Wkv32GOvmK-45" edge="1">
          <mxGeometry relative="1" as="geometry">
            <Array as="points" />
          </mxGeometry>
        </mxCell>
        <mxCell id="YmAx3Wk3M9Wkv32GOvmK-71" value="1,M" style="edgeLabel;html=1;align=center;verticalAlign=middle;resizable=0;points=[];" parent="YmAx3Wk3M9Wkv32GOvmK-69" vertex="1" connectable="0">
          <mxGeometry x="-0.119" y="1" relative="1" as="geometry">
            <mxPoint as="offset" />
          </mxGeometry>
        </mxCell>
        <mxCell id="SPQxVRiJ7Nk8ywsgeBVe-1" value="&lt;div&gt;zaposlenik&lt;/div&gt;" style="shape=table;startSize=30;container=1;collapsible=1;childLayout=tableLayout;fixedRows=1;rowLines=0;fontStyle=1;align=center;resizeLast=1;html=1;" vertex="1" parent="1">
          <mxGeometry x="960" y="610" width="180" height="180" as="geometry" />
        </mxCell>
        <mxCell id="SPQxVRiJ7Nk8ywsgeBVe-2" value="" style="shape=tableRow;horizontal=0;startSize=0;swimlaneHead=0;swimlaneBody=0;fillColor=none;collapsible=0;dropTarget=0;points=[[0,0.5],[1,0.5]];portConstraint=eastwest;top=0;left=0;right=0;bottom=1;" vertex="1" parent="SPQxVRiJ7Nk8ywsgeBVe-1">
          <mxGeometry y="30" width="180" height="30" as="geometry" />
        </mxCell>
        <mxCell id="SPQxVRiJ7Nk8ywsgeBVe-3" value="PK" style="shape=partialRectangle;connectable=0;fillColor=none;top=0;left=0;bottom=0;right=0;fontStyle=1;overflow=hidden;whiteSpace=wrap;html=1;" vertex="1" parent="SPQxVRiJ7Nk8ywsgeBVe-2">
          <mxGeometry width="30" height="30" as="geometry">
            <mxRectangle width="30" height="30" as="alternateBounds" />
          </mxGeometry>
        </mxCell>
        <mxCell id="SPQxVRiJ7Nk8ywsgeBVe-4" value="sifraZaposlenika" style="shape=partialRectangle;connectable=0;fillColor=none;top=0;left=0;bottom=0;right=0;align=left;spacingLeft=6;fontStyle=5;overflow=hidden;whiteSpace=wrap;html=1;" vertex="1" parent="SPQxVRiJ7Nk8ywsgeBVe-2">
          <mxGeometry x="30" width="150" height="30" as="geometry">
            <mxRectangle width="150" height="30" as="alternateBounds" />
          </mxGeometry>
        </mxCell>
        <mxCell id="SPQxVRiJ7Nk8ywsgeBVe-5" value="" style="shape=tableRow;horizontal=0;startSize=0;swimlaneHead=0;swimlaneBody=0;fillColor=none;collapsible=0;dropTarget=0;points=[[0,0.5],[1,0.5]];portConstraint=eastwest;top=0;left=0;right=0;bottom=0;" vertex="1" parent="SPQxVRiJ7Nk8ywsgeBVe-1">
          <mxGeometry y="60" width="180" height="30" as="geometry" />
        </mxCell>
        <mxCell id="SPQxVRiJ7Nk8ywsgeBVe-6" value="" style="shape=partialRectangle;connectable=0;fillColor=none;top=0;left=0;bottom=0;right=0;editable=1;overflow=hidden;whiteSpace=wrap;html=1;" vertex="1" parent="SPQxVRiJ7Nk8ywsgeBVe-5">
          <mxGeometry width="30" height="30" as="geometry">
            <mxRectangle width="30" height="30" as="alternateBounds" />
          </mxGeometry>
        </mxCell>
        <mxCell id="SPQxVRiJ7Nk8ywsgeBVe-7" value="ime" style="shape=partialRectangle;connectable=0;fillColor=none;top=0;left=0;bottom=0;right=0;align=left;spacingLeft=6;overflow=hidden;whiteSpace=wrap;html=1;" vertex="1" parent="SPQxVRiJ7Nk8ywsgeBVe-5">
          <mxGeometry x="30" width="150" height="30" as="geometry">
            <mxRectangle width="150" height="30" as="alternateBounds" />
          </mxGeometry>
        </mxCell>
        <mxCell id="SPQxVRiJ7Nk8ywsgeBVe-8" value="" style="shape=tableRow;horizontal=0;startSize=0;swimlaneHead=0;swimlaneBody=0;fillColor=none;collapsible=0;dropTarget=0;points=[[0,0.5],[1,0.5]];portConstraint=eastwest;top=0;left=0;right=0;bottom=0;" vertex="1" parent="SPQxVRiJ7Nk8ywsgeBVe-1">
          <mxGeometry y="90" width="180" height="30" as="geometry" />
        </mxCell>
        <mxCell id="SPQxVRiJ7Nk8ywsgeBVe-9" value="" style="shape=partialRectangle;connectable=0;fillColor=none;top=0;left=0;bottom=0;right=0;editable=1;overflow=hidden;whiteSpace=wrap;html=1;" vertex="1" parent="SPQxVRiJ7Nk8ywsgeBVe-8">
          <mxGeometry width="30" height="30" as="geometry">
            <mxRectangle width="30" height="30" as="alternateBounds" />
          </mxGeometry>
        </mxCell>
        <mxCell id="SPQxVRiJ7Nk8ywsgeBVe-10" value="prezime" style="shape=partialRectangle;connectable=0;fillColor=none;top=0;left=0;bottom=0;right=0;align=left;spacingLeft=6;overflow=hidden;whiteSpace=wrap;html=1;" vertex="1" parent="SPQxVRiJ7Nk8ywsgeBVe-8">
          <mxGeometry x="30" width="150" height="30" as="geometry">
            <mxRectangle width="150" height="30" as="alternateBounds" />
          </mxGeometry>
        </mxCell>
        <mxCell id="SPQxVRiJ7Nk8ywsgeBVe-11" value="" style="shape=tableRow;horizontal=0;startSize=0;swimlaneHead=0;swimlaneBody=0;fillColor=none;collapsible=0;dropTarget=0;points=[[0,0.5],[1,0.5]];portConstraint=eastwest;top=0;left=0;right=0;bottom=0;" vertex="1" parent="SPQxVRiJ7Nk8ywsgeBVe-1">
          <mxGeometry y="120" width="180" height="30" as="geometry" />
        </mxCell>
        <mxCell id="SPQxVRiJ7Nk8ywsgeBVe-12" value="" style="shape=partialRectangle;connectable=0;fillColor=none;top=0;left=0;bottom=0;right=0;editable=1;overflow=hidden;whiteSpace=wrap;html=1;" vertex="1" parent="SPQxVRiJ7Nk8ywsgeBVe-11">
          <mxGeometry width="30" height="30" as="geometry">
            <mxRectangle width="30" height="30" as="alternateBounds" />
          </mxGeometry>
        </mxCell>
        <mxCell id="SPQxVRiJ7Nk8ywsgeBVe-13" value="adresa" style="shape=partialRectangle;connectable=0;fillColor=none;top=0;left=0;bottom=0;right=0;align=left;spacingLeft=6;overflow=hidden;whiteSpace=wrap;html=1;" vertex="1" parent="SPQxVRiJ7Nk8ywsgeBVe-11">
          <mxGeometry x="30" width="150" height="30" as="geometry">
            <mxRectangle width="150" height="30" as="alternateBounds" />
          </mxGeometry>
        </mxCell>
        <mxCell id="SPQxVRiJ7Nk8ywsgeBVe-14" value="" style="shape=tableRow;horizontal=0;startSize=0;swimlaneHead=0;swimlaneBody=0;fillColor=none;collapsible=0;dropTarget=0;points=[[0,0.5],[1,0.5]];portConstraint=eastwest;top=0;left=0;right=0;bottom=0;" vertex="1" parent="SPQxVRiJ7Nk8ywsgeBVe-1">
          <mxGeometry y="150" width="180" height="30" as="geometry" />
        </mxCell>
        <mxCell id="SPQxVRiJ7Nk8ywsgeBVe-15" value="" style="shape=partialRectangle;connectable=0;fillColor=none;top=0;left=0;bottom=0;right=0;editable=1;overflow=hidden;whiteSpace=wrap;html=1;" vertex="1" parent="SPQxVRiJ7Nk8ywsgeBVe-14">
          <mxGeometry width="30" height="30" as="geometry">
            <mxRectangle width="30" height="30" as="alternateBounds" />
          </mxGeometry>
        </mxCell>
        <mxCell id="SPQxVRiJ7Nk8ywsgeBVe-16" value="mijesto" style="shape=partialRectangle;connectable=0;fillColor=none;top=0;left=0;bottom=0;right=0;align=left;spacingLeft=6;overflow=hidden;whiteSpace=wrap;html=1;" vertex="1" parent="SPQxVRiJ7Nk8ywsgeBVe-14">
          <mxGeometry x="30" width="150" height="30" as="geometry">
            <mxRectangle width="150" height="30" as="alternateBounds" />
          </mxGeometry>
        </mxCell>
        <mxCell id="SPQxVRiJ7Nk8ywsgeBVe-17" value="radniSat" style="shape=table;startSize=30;container=1;collapsible=1;childLayout=tableLayout;fixedRows=1;rowLines=0;fontStyle=1;align=center;resizeLast=1;html=1;" vertex="1" parent="1">
          <mxGeometry x="1400" y="610" width="180" height="180" as="geometry" />
        </mxCell>
        <mxCell id="SPQxVRiJ7Nk8ywsgeBVe-18" value="" style="shape=tableRow;horizontal=0;startSize=0;swimlaneHead=0;swimlaneBody=0;fillColor=none;collapsible=0;dropTarget=0;points=[[0,0.5],[1,0.5]];portConstraint=eastwest;top=0;left=0;right=0;bottom=1;" vertex="1" parent="SPQxVRiJ7Nk8ywsgeBVe-17">
          <mxGeometry y="30" width="180" height="30" as="geometry" />
        </mxCell>
        <mxCell id="SPQxVRiJ7Nk8ywsgeBVe-19" value="PK" style="shape=partialRectangle;connectable=0;fillColor=none;top=0;left=0;bottom=0;right=0;fontStyle=1;overflow=hidden;whiteSpace=wrap;html=1;" vertex="1" parent="SPQxVRiJ7Nk8ywsgeBVe-18">
          <mxGeometry width="30" height="30" as="geometry">
            <mxRectangle width="30" height="30" as="alternateBounds" />
          </mxGeometry>
        </mxCell>
        <mxCell id="SPQxVRiJ7Nk8ywsgeBVe-20" value="sifraSata" style="shape=partialRectangle;connectable=0;fillColor=none;top=0;left=0;bottom=0;right=0;align=left;spacingLeft=6;fontStyle=5;overflow=hidden;whiteSpace=wrap;html=1;" vertex="1" parent="SPQxVRiJ7Nk8ywsgeBVe-18">
          <mxGeometry x="30" width="150" height="30" as="geometry">
            <mxRectangle width="150" height="30" as="alternateBounds" />
          </mxGeometry>
        </mxCell>
        <mxCell id="SPQxVRiJ7Nk8ywsgeBVe-21" value="" style="shape=tableRow;horizontal=0;startSize=0;swimlaneHead=0;swimlaneBody=0;fillColor=none;collapsible=0;dropTarget=0;points=[[0,0.5],[1,0.5]];portConstraint=eastwest;top=0;left=0;right=0;bottom=0;" vertex="1" parent="SPQxVRiJ7Nk8ywsgeBVe-17">
          <mxGeometry y="60" width="180" height="30" as="geometry" />
        </mxCell>
        <mxCell id="SPQxVRiJ7Nk8ywsgeBVe-22" value="" style="shape=partialRectangle;connectable=0;fillColor=none;top=0;left=0;bottom=0;right=0;editable=1;overflow=hidden;whiteSpace=wrap;html=1;" vertex="1" parent="SPQxVRiJ7Nk8ywsgeBVe-21">
          <mxGeometry width="30" height="30" as="geometry">
            <mxRectangle width="30" height="30" as="alternateBounds" />
          </mxGeometry>
        </mxCell>
        <mxCell id="SPQxVRiJ7Nk8ywsgeBVe-23" value="datum" style="shape=partialRectangle;connectable=0;fillColor=none;top=0;left=0;bottom=0;right=0;align=left;spacingLeft=6;overflow=hidden;whiteSpace=wrap;html=1;" vertex="1" parent="SPQxVRiJ7Nk8ywsgeBVe-21">
          <mxGeometry x="30" width="150" height="30" as="geometry">
            <mxRectangle width="150" height="30" as="alternateBounds" />
          </mxGeometry>
        </mxCell>
        <mxCell id="SPQxVRiJ7Nk8ywsgeBVe-24" value="" style="shape=tableRow;horizontal=0;startSize=0;swimlaneHead=0;swimlaneBody=0;fillColor=none;collapsible=0;dropTarget=0;points=[[0,0.5],[1,0.5]];portConstraint=eastwest;top=0;left=0;right=0;bottom=0;" vertex="1" parent="SPQxVRiJ7Nk8ywsgeBVe-17">
          <mxGeometry y="90" width="180" height="30" as="geometry" />
        </mxCell>
        <mxCell id="SPQxVRiJ7Nk8ywsgeBVe-25" value="" style="shape=partialRectangle;connectable=0;fillColor=none;top=0;left=0;bottom=0;right=0;editable=1;overflow=hidden;whiteSpace=wrap;html=1;" vertex="1" parent="SPQxVRiJ7Nk8ywsgeBVe-24">
          <mxGeometry width="30" height="30" as="geometry">
            <mxRectangle width="30" height="30" as="alternateBounds" />
          </mxGeometry>
        </mxCell>
        <mxCell id="SPQxVRiJ7Nk8ywsgeBVe-26" value="brojSati" style="shape=partialRectangle;connectable=0;fillColor=none;top=0;left=0;bottom=0;right=0;align=left;spacingLeft=6;overflow=hidden;whiteSpace=wrap;html=1;" vertex="1" parent="SPQxVRiJ7Nk8ywsgeBVe-24">
          <mxGeometry x="30" width="150" height="30" as="geometry">
            <mxRectangle width="150" height="30" as="alternateBounds" />
          </mxGeometry>
        </mxCell>
        <mxCell id="SPQxVRiJ7Nk8ywsgeBVe-27" value="" style="shape=tableRow;horizontal=0;startSize=0;swimlaneHead=0;swimlaneBody=0;fillColor=none;collapsible=0;dropTarget=0;points=[[0,0.5],[1,0.5]];portConstraint=eastwest;top=0;left=0;right=0;bottom=0;" vertex="1" parent="SPQxVRiJ7Nk8ywsgeBVe-17">
          <mxGeometry y="120" width="180" height="30" as="geometry" />
        </mxCell>
        <mxCell id="SPQxVRiJ7Nk8ywsgeBVe-28" value="" style="shape=partialRectangle;connectable=0;fillColor=none;top=0;left=0;bottom=0;right=0;editable=1;overflow=hidden;whiteSpace=wrap;html=1;" vertex="1" parent="SPQxVRiJ7Nk8ywsgeBVe-27">
          <mxGeometry width="30" height="30" as="geometry">
            <mxRectangle width="30" height="30" as="alternateBounds" />
          </mxGeometry>
        </mxCell>
        <mxCell id="SPQxVRiJ7Nk8ywsgeBVe-29" value="opisPosla" style="shape=partialRectangle;connectable=0;fillColor=none;top=0;left=0;bottom=0;right=0;align=left;spacingLeft=6;overflow=hidden;whiteSpace=wrap;html=1;" vertex="1" parent="SPQxVRiJ7Nk8ywsgeBVe-27">
          <mxGeometry x="30" width="150" height="30" as="geometry">
            <mxRectangle width="150" height="30" as="alternateBounds" />
          </mxGeometry>
        </mxCell>
        <mxCell id="SPQxVRiJ7Nk8ywsgeBVe-30" value="" style="shape=tableRow;horizontal=0;startSize=0;swimlaneHead=0;swimlaneBody=0;fillColor=none;collapsible=0;dropTarget=0;points=[[0,0.5],[1,0.5]];portConstraint=eastwest;top=0;left=0;right=0;bottom=0;" vertex="1" parent="SPQxVRiJ7Nk8ywsgeBVe-17">
          <mxGeometry y="150" width="180" height="30" as="geometry" />
        </mxCell>
        <mxCell id="SPQxVRiJ7Nk8ywsgeBVe-31" value="FK" style="shape=partialRectangle;connectable=0;fillColor=none;top=0;left=0;bottom=0;right=0;editable=1;overflow=hidden;whiteSpace=wrap;html=1;" vertex="1" parent="SPQxVRiJ7Nk8ywsgeBVe-30">
          <mxGeometry width="30" height="30" as="geometry">
            <mxRectangle width="30" height="30" as="alternateBounds" />
          </mxGeometry>
        </mxCell>
        <mxCell id="SPQxVRiJ7Nk8ywsgeBVe-32" value="&lt;u&gt;sifraZaposlenika&lt;/u&gt;" style="shape=partialRectangle;connectable=0;fillColor=none;top=0;left=0;bottom=0;right=0;align=left;spacingLeft=6;overflow=hidden;whiteSpace=wrap;html=1;" vertex="1" parent="SPQxVRiJ7Nk8ywsgeBVe-30">
          <mxGeometry x="30" width="150" height="30" as="geometry">
            <mxRectangle width="150" height="30" as="alternateBounds" />
          </mxGeometry>
        </mxCell>
        <mxCell id="SPQxVRiJ7Nk8ywsgeBVe-33" style="edgeStyle=orthogonalEdgeStyle;rounded=0;orthogonalLoop=1;jettySize=auto;html=1;exitX=0;exitY=0.5;exitDx=0;exitDy=0;entryX=1;entryY=0.5;entryDx=0;entryDy=0;" edge="1" parent="1" source="SPQxVRiJ7Nk8ywsgeBVe-30" target="SPQxVRiJ7Nk8ywsgeBVe-2">
          <mxGeometry relative="1" as="geometry" />
        </mxCell>
        <mxCell id="SPQxVRiJ7Nk8ywsgeBVe-34" value="relacijska shema:" style="text;html=1;align=center;verticalAlign=middle;resizable=0;points=[];autosize=1;strokeColor=none;fillColor=none;fontSize=15;" vertex="1" parent="1">
          <mxGeometry x="930" y="518" width="140" height="30" as="geometry" />
        </mxCell>
        <mxCell id="SPQxVRiJ7Nk8ywsgeBVe-35" value="&lt;div&gt;zaposlenik&amp;nbsp;&amp;nbsp; (&lt;u&gt;&lt;b&gt;sifraZapsolenika(PK)&lt;/b&gt;&lt;/u&gt;, ime, prezime, adresa, mijesto)&lt;/div&gt;&lt;div&gt;radniSat&amp;nbsp;&amp;nbsp; (&lt;u&gt;&lt;b&gt;sifraSata(PK)&lt;/b&gt;&lt;/u&gt;, datum, brojSati, opisPosla, &lt;u&gt;sifraZaposlnika(FK)&lt;/u&gt;)&lt;br&gt;&lt;/div&gt;" style="text;html=1;align=left;verticalAlign=middle;resizable=0;points=[];autosize=1;strokeColor=none;fillColor=none;" vertex="1" parent="1">
          <mxGeometry x="950" y="853" width="420" height="40" as="geometry" />
        </mxCell>
      </root>
    </mxGraphModel>
  </diagram>
</mxfile>
